<svg width="20" height="20" viewBox="0 0 20 20" fill="none" xmlns="http://www.w3.org/2000/svg">
<g clip-path="url(#clip0_1946_4727)">
<path d="M10 20C4.47688 20 0 15.5231 0 10C0 4.47688 4.47688 0 10 0C15.5231 0 20 4.47688 20 10H18.75C18.75 5.1675 14.8325 1.25 10 1.25C5.1675 1.25 1.25 5.1675 1.25 10C1.25 14.8325 5.1675 18.75 10 18.75V20Z" fill="white"/>
<path d="M16.875 12.5V20H15.625V12.5H16.875ZM13.75 15V20H12.5V15H13.75ZM20 13.75V20H18.75V13.75H20ZM10.625 5.625V9.375H14.375V10.625H10.625V14.375H9.375V10.625H5.625V9.375H9.375V5.625H10.625Z" fill="white"/>
</g>
<defs>
<clipPath id="clip0_1946_4727">
<rect width="20" height="20" fill="white"/>
</clipPath>
</defs>
</svg>
