<svg width="18" height="18" viewBox="0 0 18 18" fill="none" xmlns="http://www.w3.org/2000/svg">
<path d="M11.565 1.93652C11.4878 1.85362 11.3946 1.78713 11.2911 1.74101C11.1876 1.6949 11.0759 1.6701 10.9626 1.6681C10.8493 1.6661 10.7368 1.68694 10.6317 1.72938C10.5266 1.77181 10.4312 1.83498 10.3511 1.9151C10.271 1.99522 10.2078 2.09066 10.1654 2.19572C10.1229 2.30078 10.1021 2.41331 10.1041 2.5266C10.1061 2.63989 10.1309 2.75162 10.177 2.85512C10.2231 2.95862 10.2896 3.05177 10.3725 3.12902L11.745 4.50152H4.21875C3.99497 4.50152 3.78036 4.59041 3.62213 4.74864C3.46389 4.90688 3.375 5.12149 3.375 5.34527C3.375 5.56904 3.46389 5.78365 3.62213 5.94189C3.78036 6.10012 3.99497 6.18902 4.21875 6.18902H11.745L10.3725 7.56152C10.2235 7.72146 10.1423 7.93301 10.1462 8.1516C10.15 8.37019 10.2386 8.57875 10.3932 8.73334C10.5478 8.88793 10.7563 8.97648 10.9749 8.98034C11.1935 8.98419 11.4051 8.90306 11.565 8.75402L14.3775 5.94152C14.5355 5.78331 14.6243 5.56886 14.6243 5.34527C14.6243 5.12167 14.5355 4.90722 14.3775 4.74902L11.565 1.93652ZM7.6275 10.4415C7.77654 10.2816 7.85768 10.07 7.85382 9.85143C7.84997 9.63284 7.76141 9.42428 7.60682 9.26969C7.45224 9.1151 7.24368 9.02655 7.02509 9.02269C6.8065 9.01884 6.59495 9.09998 6.435 9.24902L3.6225 12.0615C3.46449 12.2197 3.37574 12.4342 3.37574 12.6578C3.37574 12.8814 3.46449 13.0958 3.6225 13.254L6.435 16.0665C6.59495 16.2156 6.8065 16.2967 7.02509 16.2928C7.24368 16.289 7.45224 16.2004 7.60682 16.0458C7.76141 15.8912 7.84997 15.6827 7.85382 15.4641C7.85768 15.2455 7.77654 15.034 7.6275 14.874L6.255 13.5015H13.7812C14.005 13.5015 14.2196 13.4126 14.3779 13.2544C14.5361 13.0962 14.625 12.8815 14.625 12.6578C14.625 12.434 14.5361 12.2194 14.3779 12.0611C14.2196 11.9029 14.005 11.814 13.7812 11.814H6.255L7.6275 10.4415Z" fill="#0A0A0A"/>
</svg>
