<svg width="28" height="28" viewBox="0 0 28 28" fill="none" xmlns="http://www.w3.org/2000/svg">
<path d="M12.8567 3.73465C13.3819 3.1961 14.0087 2.76718 14.7009 2.47278C15.3931 2.17838 16.1369 2.02436 16.8891 2.01964C17.6413 2.01493 18.3869 2.15962 19.0828 2.44532C19.7786 2.73103 20.4108 3.15205 20.9426 3.68398C21.4745 4.21591 21.8954 4.84815 22.181 5.54403C22.4666 6.2399 22.6112 6.98556 22.6064 7.73775C22.6016 8.48994 22.4475 9.23369 22.153 9.92585C21.8585 10.618 21.4295 11.2448 20.8908 11.7699L12.0533 20.6085C11.7378 20.9293 11.3618 21.1845 10.9471 21.3593C10.5324 21.5341 10.0872 21.6251 9.63719 21.627C9.18717 21.6289 8.74123 21.5416 8.32509 21.3703C7.90895 21.199 7.53085 20.947 7.2126 20.6288C6.89434 20.3106 6.64224 19.9326 6.47082 19.5165C6.2994 19.1004 6.21206 18.6545 6.21384 18.2044C6.21562 17.7544 6.30648 17.3092 6.48118 16.8945C6.65589 16.4797 6.91098 16.1037 7.23174 15.7881L16.0704 6.94942L17.6772 8.55624L8.83855 17.3949C8.73002 17.4997 8.64345 17.6251 8.58389 17.7637C8.52434 17.9024 8.49299 18.0515 8.49168 18.2024C8.49037 18.3533 8.51912 18.5029 8.57626 18.6425C8.63339 18.7822 8.71777 18.9091 8.82447 19.0158C8.93116 19.1225 9.05804 19.2069 9.1977 19.264C9.33735 19.3211 9.48699 19.3499 9.63787 19.3486C9.78876 19.3473 9.93787 19.3159 10.0765 19.2564C10.2152 19.1968 10.3405 19.1102 10.4454 19.0017L19.2851 10.1631C19.6017 9.84646 19.8529 9.47062 20.0242 9.05697C20.1955 8.64333 20.2837 8.19999 20.2837 7.75226C20.2837 7.30453 20.1955 6.86119 20.0242 6.44755C19.8529 6.0339 19.6017 5.65805 19.2851 5.34146C18.9686 5.02487 18.5927 4.77374 18.1791 4.6024C17.7654 4.43107 17.3221 4.34288 16.8743 4.34288C16.4266 4.34288 15.9833 4.43107 15.5696 4.6024C15.156 4.77374 14.7801 5.02487 14.4636 5.34146L5.62492 14.1812C4.58993 15.2528 4.01723 16.6881 4.03018 18.1778C4.04312 19.6676 4.64067 21.0927 5.69413 22.1461C6.74759 23.1996 8.17266 23.7971 9.66241 23.8101C11.1522 23.823 12.5874 23.2503 13.659 22.2153L23.3022 12.5733L24.909 14.1812L15.267 23.8233C13.7751 25.3151 11.7517 26.1532 9.64196 26.1532C7.53218 26.1532 5.50881 25.3151 4.01696 23.8233C2.52512 22.3314 1.68701 20.3081 1.68701 18.1983C1.68701 16.0885 2.52512 14.0651 4.01696 12.5733L12.8567 3.73465Z" fill="white"/>
</svg>
