<svg width="36" height="36" viewBox="0 0 36 36" fill="none" xmlns="http://www.w3.org/2000/svg">
<path d="M18 6.9375C17.337 6.9375 16.7011 7.20089 16.2322 7.66973C15.7634 8.13857 15.5 8.77446 15.5 9.4375C15.5 10.1005 15.7634 10.7364 16.2322 11.2053C16.7011 11.6741 17.337 11.9375 18 11.9375C18.663 11.9375 19.2989 11.6741 19.7678 11.2053C20.2366 10.7364 20.5 10.1005 20.5 9.4375C20.5 8.77446 20.2366 8.13857 19.7678 7.66973C19.2989 7.20089 18.663 6.9375 18 6.9375ZM13.5 9.4375C13.5 8.24403 13.9741 7.09943 14.818 6.25552C15.6619 5.41161 16.8065 4.9375 18 4.9375C19.1935 4.9375 20.3381 5.41161 21.182 6.25552C22.0259 7.09943 22.5 8.24403 22.5 9.4375C22.5 10.631 22.0259 11.7756 21.182 12.6195C20.3381 13.4634 19.1935 13.9375 18 13.9375C16.8065 13.9375 15.6619 13.4634 14.818 12.6195C13.9741 11.7756 13.5 10.631 13.5 9.4375ZM8 9.9375C7.46957 9.9375 6.96086 10.1482 6.58579 10.5233C6.21071 10.8984 6 11.4071 6 11.9375C6 12.4679 6.21071 12.9766 6.58579 13.3517C6.96086 13.7268 7.46957 13.9375 8 13.9375C8.53043 13.9375 9.03914 13.7268 9.41421 13.3517C9.78929 12.9766 10 12.4679 10 11.9375C10 11.4071 9.78929 10.8984 9.41421 10.5233C9.03914 10.1482 8.53043 9.9375 8 9.9375ZM4 11.9375C4 10.8766 4.42143 9.85922 5.17157 9.10907C5.92172 8.35893 6.93913 7.9375 8 7.9375C9.06087 7.9375 10.0783 8.35893 10.8284 9.10907C11.5786 9.85922 12 10.8766 12 11.9375C12 12.9984 11.5786 14.0158 10.8284 14.7659C10.0783 15.5161 9.06087 15.9375 8 15.9375C6.93913 15.9375 5.92172 15.5161 5.17157 14.7659C4.42143 14.0158 4 12.9984 4 11.9375ZM26 11.9375C26 11.4071 26.2107 10.8984 26.5858 10.5233C26.9609 10.1482 27.4696 9.9375 28 9.9375C28.5304 9.9375 29.0391 10.1482 29.4142 10.5233C29.7893 10.8984 30 11.4071 30 11.9375C30 12.4679 29.7893 12.9766 29.4142 13.3517C29.0391 13.7268 28.5304 13.9375 28 13.9375C27.4696 13.9375 26.9609 13.7268 26.5858 13.3517C26.2107 12.9766 26 12.4679 26 11.9375ZM28 7.9375C26.9391 7.9375 25.9217 8.35893 25.1716 9.10907C24.4214 9.85922 24 10.8766 24 11.9375C24 12.9984 24.4214 14.0158 25.1716 14.7659C25.9217 15.5161 26.9391 15.9375 28 15.9375C29.0609 15.9375 30.0783 15.5161 30.8284 14.7659C31.5786 14.0158 32 12.9984 32 11.9375C32 10.8766 31.5786 9.85922 30.8284 9.10907C30.0783 8.35893 29.0609 7.9375 28 7.9375ZM10.5 18.4375C10.5 18.2148 10.5177 17.9978 10.553 17.7865L5.853 19.0455C5.21266 19.2173 4.66678 19.6364 4.33541 20.2106C4.00404 20.7848 3.91432 21.4671 4.086 22.1075L4.992 25.4875C5.21069 26.3042 5.5995 27.0654 6.13294 27.7213C6.66638 28.3772 7.33241 28.9129 8.08737 29.2934C8.84233 29.6739 9.66919 29.8906 10.5137 29.9292C11.3583 29.9678 12.2015 29.8275 12.988 29.5175C12.4474 29.0323 11.9802 28.4711 11.601 27.8515C10.601 28.0592 9.55938 27.8764 8.68977 27.3408C7.82015 26.8051 7.18839 25.9571 6.924 24.9705L6.018 21.5905C6.0009 21.5271 5.99647 21.4609 6.00496 21.3958C6.01345 21.3306 6.03469 21.2678 6.06748 21.2109C6.10026 21.1539 6.14394 21.104 6.19602 21.064C6.2481 21.0239 6.30756 20.9946 6.371 20.9775L10.5 19.8715V18.4375ZM23.657 29.7305C23.4378 29.6721 23.2222 29.6013 23.011 29.5185C23.5519 29.0333 24.0195 28.4721 24.399 27.8525C25.3989 28.0596 26.4401 27.8764 27.3093 27.3406C28.1785 26.8048 28.8098 25.9568 29.074 24.9705L29.979 21.5895C30.0132 21.4615 29.9953 21.3252 29.9291 21.2105C29.8629 21.0957 29.7539 21.0119 29.626 20.9775L25.5 19.8715V18.4375C25.5 18.2162 25.4823 17.9995 25.447 17.7875L30.144 19.0455C30.7843 19.2173 31.3302 19.6364 31.6616 20.2106C31.993 20.7848 32.0827 21.4671 31.911 22.1075L31.005 25.4875C30.5932 27.0245 29.5877 28.3351 28.2097 29.1308C26.8317 29.9265 25.1941 30.1422 23.657 29.7305ZM14.5 15.9375C13.837 15.9375 13.2011 16.2009 12.7322 16.6697C12.2634 17.1386 12 17.7745 12 18.4375V23.9375C12 25.5288 12.6321 27.0549 13.7574 28.1801C14.8826 29.3054 16.4087 29.9375 18 29.9375C19.5913 29.9375 21.1174 29.3054 22.2426 28.1801C23.3679 27.0549 24 25.5288 24 23.9375V18.4375C24 17.7745 23.7366 17.1386 23.2678 16.6697C22.7989 16.2009 22.163 15.9375 21.5 15.9375H14.5ZM14 18.4375C14 18.3049 14.0527 18.1777 14.1464 18.0839C14.2402 17.9902 14.3674 17.9375 14.5 17.9375H21.5C21.6326 17.9375 21.7598 17.9902 21.8536 18.0839C21.9473 18.1777 22 18.3049 22 18.4375V23.9375C22 24.9984 21.5786 26.0158 20.8284 26.7659C20.0783 27.5161 19.0609 27.9375 18 27.9375C16.9391 27.9375 15.9217 27.5161 15.1716 26.7659C14.4214 26.0158 14 24.9984 14 23.9375V18.4375Z" fill="#30EAF7"/>
</svg>
