<svg width="21" height="21" viewBox="0 0 21 21" fill="none" xmlns="http://www.w3.org/2000/svg">
<path d="M13.9453 2.625H6.89062C4.44418 2.625 2.46094 4.60824 2.46094 7.05469V14.1094C2.46094 16.5558 4.44418 18.5391 6.89062 18.5391H13.9453C16.3918 18.5391 18.375 16.5558 18.375 14.1094V7.05469C18.375 4.60824 16.3918 2.625 13.9453 2.625Z" stroke="white" stroke-width="1.14844"/>
<path d="M10.5 10.8281C10.6812 10.8281 10.8281 10.6812 10.8281 10.5C10.8281 10.3188 10.6812 10.1719 10.5 10.1719C10.3188 10.1719 10.1719 10.3188 10.1719 10.5C10.1719 10.6812 10.3188 10.8281 10.5 10.8281Z" fill="white" stroke="white" stroke-width="1.14844"/>
<path d="M6.89062 7.38281C7.07184 7.38281 7.21875 7.23591 7.21875 7.05469C7.21875 6.87347 7.07184 6.72656 6.89062 6.72656C6.70941 6.72656 6.5625 6.87347 6.5625 7.05469C6.5625 7.23591 6.70941 7.38281 6.89062 7.38281Z" fill="white" stroke="white" stroke-width="1.14844"/>
<path d="M6.72656 14.2734C6.90778 14.2734 7.05469 14.1265 7.05469 13.9453C7.05469 13.7641 6.90778 13.6172 6.72656 13.6172C6.54534 13.6172 6.39844 13.7641 6.39844 13.9453C6.39844 14.1265 6.54534 14.2734 6.72656 14.2734Z" fill="white" stroke="white" stroke-width="1.14844"/>
<path d="M14.2734 7.38281C14.4547 7.38281 14.6016 7.23591 14.6016 7.05469C14.6016 6.87347 14.4547 6.72656 14.2734 6.72656C14.0922 6.72656 13.9453 6.87347 13.9453 7.05469C13.9453 7.23591 14.0922 7.38281 14.2734 7.38281Z" fill="white" stroke="white" stroke-width="1.14844"/>
<path d="M14.1094 14.2734C14.2906 14.2734 14.4375 14.1265 14.4375 13.9453C14.4375 13.7641 14.2906 13.6172 14.1094 13.6172C13.9282 13.6172 13.7812 13.7641 13.7812 13.9453C13.7812 14.1265 13.9282 14.2734 14.1094 14.2734Z" fill="white" stroke="white" stroke-width="1.14844"/>
</svg>
