<svg width="28" height="28" viewBox="0 0 28 28" fill="none" xmlns="http://www.w3.org/2000/svg">
<path d="M13.9095 2.46094C20.1857 2.46094 25.2732 7.54844 25.2732 13.8246C25.2732 20.1007 20.1857 25.1882 13.9095 25.1882C7.6334 25.1882 2.5459 20.1007 2.5459 13.8246C2.5459 7.54844 7.6334 2.46094 13.9095 2.46094ZM13.9095 4.73366C11.4985 4.73366 9.18617 5.69145 7.48129 7.39633C5.77642 9.10121 4.81863 11.4135 4.81863 13.8246C4.81863 16.2356 5.77642 18.5479 7.48129 20.2528C9.18617 21.9577 11.4985 22.9155 13.9095 22.9155C16.3206 22.9155 18.6329 21.9577 20.3378 20.2528C22.0427 18.5479 23.0004 16.2356 23.0004 13.8246C23.0004 11.4135 22.0427 9.10121 20.3378 7.39633C18.6329 5.69145 16.3206 4.73366 13.9095 4.73366ZM17.0914 15.9348C17.1974 15.8278 17.3236 15.743 17.4627 15.6853C17.6018 15.6275 17.7509 15.598 17.9015 15.5984C18.0521 15.5989 18.2011 15.6292 18.3399 15.6877C18.4787 15.7462 18.6044 15.8317 18.7098 15.9393C18.8153 16.0468 18.8983 16.1742 18.954 16.3141C19.0098 16.454 19.0372 16.6036 19.0346 16.7542C19.032 16.9047 18.9996 17.0533 18.9391 17.1912C18.8786 17.3291 18.7913 17.4536 18.6823 17.5575C17.4091 18.8088 15.6947 19.5089 13.9095 19.5064C12.1244 19.5089 10.41 18.8088 9.13681 17.5575C8.92661 17.3455 8.80832 17.0592 8.80749 16.7607C8.80667 16.4621 8.92338 16.1752 9.13241 15.962C9.34143 15.7488 9.62596 15.6264 9.92449 15.6213C10.223 15.6162 10.5116 15.7288 10.7277 15.9348C11.5761 16.7696 12.7193 17.2362 13.9095 17.2337C15.1482 17.2337 16.2698 16.7393 17.0914 15.9348ZM9.93226 9.27912C10.3843 9.27912 10.8179 9.4587 11.1376 9.77837C11.4572 10.098 11.6368 10.5316 11.6368 10.9837C11.6368 11.4357 11.4572 11.8693 11.1376 12.189C10.8179 12.5086 10.3843 12.6882 9.93226 12.6882C9.48019 12.6882 9.04663 12.5086 8.72697 12.189C8.4073 11.8693 8.22772 11.4357 8.22772 10.9837C8.22772 10.5316 8.4073 10.098 8.72697 9.77837C9.04663 9.4587 9.48019 9.27912 9.93226 9.27912ZM17.8868 9.27912C18.3389 9.27912 18.7724 9.4587 19.0921 9.77837C19.4118 10.098 19.5914 10.5316 19.5914 10.9837C19.5914 11.4357 19.4118 11.8693 19.0921 12.189C18.7724 12.5086 18.3389 12.6882 17.8868 12.6882C17.4347 12.6882 17.0012 12.5086 16.6815 12.189C16.3618 11.8693 16.1823 11.4357 16.1823 10.9837C16.1823 10.5316 16.3618 10.098 16.6815 9.77837C17.0012 9.4587 17.4347 9.27912 17.8868 9.27912Z" fill="white"/>
</svg>
