<svg width="21" height="21" viewBox="0 0 21 21" fill="none" xmlns="http://www.w3.org/2000/svg">
<path fill-rule="evenodd" clip-rule="evenodd" d="M10.5001 18.5827C11.5615 18.5827 12.6125 18.3737 13.5931 17.9675C14.5737 17.5613 15.4647 16.966 16.2152 16.2154C16.9657 15.4649 17.5611 14.5739 17.9672 13.5933C18.3734 12.6127 18.5825 11.5617 18.5825 10.5003C18.5825 9.43895 18.3734 8.38795 17.9672 7.40735C17.5611 6.42675 16.9657 5.53576 16.2152 4.78524C15.4647 4.03472 14.5737 3.43938 13.5931 3.0332C12.6125 2.62703 11.5615 2.41797 10.5001 2.41797C8.35652 2.41797 6.30074 3.2695 4.785 4.78524C3.26926 6.30098 2.41772 8.35676 2.41772 10.5003C2.41772 12.6439 3.26926 14.6997 4.785 16.2154C6.30074 17.7312 8.35652 18.5827 10.5001 18.5827ZM13.1163 3.73309C13.4313 4.07172 13.7157 4.46634 13.9651 4.90122C14.4227 5.69309 14.7797 6.64247 15.0107 7.69247C15.3741 7.78347 15.7142 7.88497 16.031 7.99697C16.6155 8.20434 17.1291 8.44934 17.536 8.73197C17.2518 7.60645 16.7023 6.56532 15.9334 5.69565C15.1645 4.82597 14.1986 4.15303 13.1163 3.73309ZM17.641 11.7796C17.2183 12.0937 16.6671 12.3641 16.031 12.589C15.7405 12.6916 15.4296 12.7856 15.0982 12.8707C14.876 14.0957 14.4857 15.1982 13.966 16.0995C13.7272 16.5193 13.4422 16.9111 13.1163 17.2676C14.2779 16.8176 15.3041 16.0765 16.0965 15.1154C16.8889 14.1543 17.4207 13.0056 17.641 11.7796ZM7.88472 17.2676C7.55853 16.9112 7.27325 16.5194 7.03422 16.0995C6.51535 15.1982 6.12422 14.0957 5.90197 12.8707C5.58718 12.7902 5.27597 12.6962 4.96922 12.589C4.3331 12.3641 3.78185 12.0937 3.35922 11.7796C3.57947 13.0056 4.11133 14.1543 4.90371 15.1154C5.69609 16.0765 6.72322 16.8176 7.88472 17.2676ZM3.46335 8.73109C3.87022 8.44934 4.38385 8.20434 4.96835 7.99697C5.2851 7.88555 5.62518 7.78405 5.9886 7.69247C6.2196 6.64247 6.5766 5.69309 7.03335 4.90122C7.2721 4.48137 7.55709 4.08956 7.88297 3.73309C6.80118 4.15318 5.83566 4.82609 5.06708 5.69559C4.2985 6.56509 3.74921 7.60592 3.4651 8.73109M13.2476 5.31422C13.6055 5.93547 13.9003 6.67397 14.113 7.49822C13.0572 7.308 11.9875 7.20441 10.9148 7.18847V3.32972C11.7706 3.49597 12.5931 4.17847 13.2476 5.31422ZM14.3011 8.38022C13.186 8.15461 12.0524 8.03305 10.9148 8.01709V12.5688C12.181 12.5443 13.3579 12.4087 14.3667 12.1926C14.4408 11.6489 14.4781 11.0848 14.4787 10.5003C14.4787 9.76097 14.4166 9.04959 14.3011 8.38022ZM10.0853 3.32884V7.18759C9.01292 7.20387 7.94361 7.30776 6.8881 7.49822C7.09985 6.67397 7.3956 5.93459 7.7526 5.31422C8.4071 4.17934 9.2296 3.49597 10.0853 3.32884ZM10.0853 8.01709C8.94779 8.03305 7.81417 8.15461 6.6991 8.38022C6.57981 9.0806 6.52038 9.78987 6.52147 10.5003C6.52147 11.084 6.55997 11.6501 6.63347 12.1917C7.64235 12.4087 8.81922 12.5443 10.0853 12.568V8.01709ZM5.24572 8.77834C5.42947 8.71418 5.62285 8.65293 5.82585 8.59459C5.66672 9.71521 5.6485 10.8513 5.7716 11.9765C5.58785 11.9222 5.41256 11.8659 5.24572 11.8076C4.58072 11.5722 4.07322 11.3027 3.73897 11.0236C3.4021 10.7427 3.28835 10.4942 3.28835 10.293C3.28835 10.0917 3.4021 9.84322 3.73897 9.56234C4.07322 9.28322 4.58072 9.01372 5.24572 8.77922M7.7526 15.6873C7.33347 14.9593 7.0001 14.0686 6.78572 13.0693C7.78147 13.261 8.90147 13.3765 10.0853 13.3983V17.6727C9.2296 17.5056 8.4071 16.8231 7.7526 15.6873ZM10.9148 17.6718V13.3966C12.022 13.3803 13.1259 13.2703 14.2145 13.0676C14.001 14.0677 13.6667 14.9576 13.2476 15.6856C12.5931 16.8205 11.7706 17.5047 10.9148 17.6718ZM15.3073 10.5003C15.3073 11.0043 15.2811 11.4964 15.2286 11.9765C15.4123 11.9228 15.5876 11.8665 15.7545 11.8076C16.4195 11.5722 16.927 11.3027 17.2612 11.0236C17.5981 10.7427 17.7118 10.4942 17.7118 10.293C17.7118 10.0917 17.5981 9.84322 17.2612 9.56234C16.927 9.28322 16.4195 9.01372 15.7545 8.77922C15.5707 8.71447 15.3773 8.65293 15.1743 8.59459C15.2618 9.20709 15.3082 9.84497 15.3082 10.5003" fill="white"/>
</svg>
