<svg width="12" height="12" viewBox="0 0 12 12" fill="none" xmlns="http://www.w3.org/2000/svg">
<path d="M8.5 2.75C9.87386 2.75 11 3.87614 11 5.25C11 5.84954 10.7224 6.49575 10.2373 7.15723C9.75601 7.81354 9.10372 8.44 8.43359 8.98828C7.76594 9.53455 7.09544 9.99138 6.59082 10.3125C6.34882 10.4665 6.14571 10.588 6.00098 10.6729C5.85613 10.5873 5.65259 10.4648 5.41016 10.3096C4.90548 9.9865 4.23511 9.5273 3.56738 8.97949C2.89705 8.42951 2.2442 7.80196 1.7627 7.14648C1.27709 6.48539 1 5.84249 1 5.25C1 3.87614 2.12614 2.75 3.5 2.75C4.37984 2.75 5.14535 3.18825 5.57812 3.86816L6 4.53125L6.42188 3.86816C6.85465 3.18825 7.62016 2.75 8.5 2.75Z" stroke="white"/>
</svg>
