<svg width="23" height="16" viewBox="0 0 23 16" fill="none" xmlns="http://www.w3.org/2000/svg">
<path fill-rule="evenodd" clip-rule="evenodd" d="M17.6 0H2.4C1.76348 0 1.15303 0.252856 0.702944 0.702944C0.252856 1.15303 0 1.76348 0 2.4V13.6C0 14.2365 0.252856 14.847 0.702944 15.2971C1.15303 15.7471 1.76348 16 2.4 16H17.6C18.2365 16 18.847 15.7471 19.2971 15.2971C19.7471 14.847 20 14.2365 20 13.6V12H20.4C21.0896 12 21.7509 11.7261 22.2385 11.2385C22.7261 10.7509 23 10.0896 23 9.4V6.6C23 6.25856 22.9327 5.92047 22.8021 5.60502C22.6714 5.28958 22.4799 5.00295 22.2385 4.76152C21.997 4.52009 21.7104 4.32858 21.395 4.19791C21.0795 4.06725 20.7414 4 20.4 4H20V2.4C20 1.76348 19.7471 1.15303 19.2971 0.702944C18.847 0.252856 18.2365 0 17.6 0ZM15.6 6C15.4409 6 15.2883 6.06321 15.1757 6.17574C15.0632 6.28826 15 6.44087 15 6.6V9.4C15 9.55913 15.0632 9.71174 15.1757 9.82426C15.2883 9.93679 15.4409 10 15.6 10H20.4C20.5591 10 20.7117 9.93679 20.8243 9.82426C20.9368 9.71174 21 9.55913 21 9.4V6.6C21 6.44087 20.9368 6.28826 20.8243 6.17574C20.7117 6.06321 20.5591 6 20.4 6H15.6Z" fill="white"/>
</svg>
